# xmcd CD database file
#
# Track frame offsets:
#	150
#	20680
#	37030
#	53950
#	67270
#	87782
#
# Disc length: 1471 seconds
#
# Revision: 0
# Processed by: cddbd v1.4PL0 Copyright (c) Steve Scherf et al.
# Submitted via: CDex 1.50Beta3
#
DISCID=5105bd06
DTITLE=The Sheila Divine - Secret Society
DYEAR=2002
DGENRE=New Age
TTITLE0=The Swan
TTITLE1=We All Have Problems
TTITLE2=Dramatica
TTITLE3=Back To The Cradle
TTITLE4=Calling All Lovers
TTITLE5=Black River
EXTD=YEAR: 2002
EXTT0=
EXTT1=
EXTT2=
EXTT3=
EXTT4=
EXTT5=
PLAYORDER=
